<svg width="400" height="400" viewBox="0 0 400 400" fill="none" xmlns="http://www.w3.org/2000/svg">
<path d="M0 200C4.63719e-06 146.957 21.0714 96.0859 58.5787 58.5786C96.0859 21.0714 146.957 -6.32535e-07 200 0V60C162.87 60 127.26 74.75 101.005 101.005C74.75 127.26 60 162.87 60 200H0Z" fill="#F98636"/>
<path d="M200 0C226.264 3.132e-07 252.272 5.17316 276.537 15.2241C300.802 25.2751 322.85 40.007 341.421 58.5787C359.993 77.1504 374.725 99.1983 384.776 123.463C394.827 147.729 400 173.736 400 200L340 200C340 181.615 336.379 163.41 329.343 146.424C322.308 129.439 311.995 114.005 298.995 101.005C285.995 88.0049 270.561 77.6925 253.576 70.6569C236.59 63.6212 218.385 60 200 60V0Z" fill="#309B8A"/>
<path d="M200 400C173.736 400 147.728 394.827 123.463 384.776C99.1982 374.725 77.1504 359.993 58.5786 341.421C40.0069 322.85 25.275 300.802 15.2241 276.537C5.17315 252.272 -2.2961e-06 226.264 0 200H60C60 218.385 63.6212 236.59 70.6569 253.576C77.6925 270.561 88.0048 285.995 101.005 298.995C114.005 311.995 129.439 322.307 146.424 329.343C163.41 336.379 181.615 340 200 340L200 400Z" fill="#FCA51A"/>
<path d="M400 200C400 226.265 394.827 252.272 384.776 276.537C374.725 300.802 359.993 322.85 341.421 341.421C322.85 359.993 300.802 374.725 276.537 384.776C252.272 394.827 226.264 400 200 400L200 340C218.385 340 236.59 336.379 253.576 329.343C270.561 322.307 285.995 311.995 298.995 298.995C311.995 285.995 322.307 270.561 329.343 253.576C336.379 236.59 340 218.385 340 200L400 200Z" fill="#334059"/>
<path d="M189 298.068C189 285.955 192.68 278.11 200.5 236C208.167 278.5 212 285.955 212 298.068C212 310.181 206.851 320 200.5 320C194.149 320 189 310.181 189 298.068Z" fill="#98733A"/>
<path d="M228.752 295.145C224.117 283.954 224.514 275.298 215.625 233.401C238.972 269.732 245.366 275.153 250.001 286.343C254.637 297.534 253.638 308.576 247.77 311.007C241.902 313.437 233.388 306.336 228.752 295.145Z" fill="#655949"/>
<path d="M212 101.932C212 114.045 208.32 121.89 200.5 164C192.833 121.5 189 114.045 189 101.932C189 89.8193 194.149 80 200.5 80C206.851 80 212 89.8193 212 101.932Z" fill="#959160"/>
<path d="M250.002 115.064C245.366 126.255 238.964 132.095 215.625 168.007C224.806 125.808 224.117 117.453 228.752 106.263C233.388 95.0719 241.902 87.9703 247.77 90.4009C253.638 92.8314 254.637 103.874 250.002 115.064Z" fill="#629675"/>
<path d="M173.642 104.263C178.278 115.453 177.88 124.11 186.77 166.007C163.423 129.676 157.028 124.255 152.393 113.064C147.758 101.874 148.757 90.8314 154.625 88.4009C160.492 85.9704 169.007 93.0719 173.642 104.263Z" fill="#C78B4B"/>
<path d="M114.064 154.393C125.255 159.028 131.095 165.431 167.007 188.77C124.808 179.589 116.453 180.278 105.263 175.642C94.0719 171.007 86.9703 162.492 89.4009 156.625C91.8314 150.757 102.874 149.758 114.064 154.393Z" fill="#FA8E2F"/>
<path d="M137.772 123.508C146.337 132.073 149.282 140.223 173.529 175.529C138.056 150.898 130.073 148.337 121.508 139.772C112.943 131.207 109.641 120.623 114.132 116.132C118.623 111.641 129.207 114.943 137.772 123.508Z" fill="#F98636"/>
<path d="M124.508 263.889C133.073 255.324 141.223 252.378 176.529 228.132C151.898 263.605 149.337 271.587 140.772 280.152C132.207 288.717 121.623 292.02 117.132 287.529C112.641 283.038 115.943 272.454 124.508 263.889Z" fill="#FCA51A"/>
<path d="M153.393 286.343C158.028 275.153 164.431 269.313 187.77 233.401C178.589 275.6 179.278 283.954 174.642 295.145C170.007 306.336 161.492 313.437 155.625 311.007C149.757 308.576 148.758 297.534 153.393 286.343Z" fill="#CA8C2A"/>
<path d="M262.889 276.152C254.324 267.587 251.378 259.437 227.132 224.132C262.605 248.763 270.587 251.324 279.152 259.889C287.717 268.454 291.02 279.038 286.529 283.529C282.038 288.02 271.454 284.717 262.889 276.152Z" fill="#334059"/>
<path d="M286.343 246.002C275.153 241.366 269.313 234.964 233.401 211.625C275.6 220.806 283.954 220.117 295.145 224.752C306.336 229.388 313.437 237.902 311.007 243.77C308.576 249.638 297.534 250.637 286.343 246.002Z" fill="#325765"/>
<path d="M280.152 139.772C271.587 148.337 263.437 151.282 228.132 175.529C252.763 140.056 255.324 132.073 263.889 123.508C272.454 114.943 283.038 111.641 287.529 116.132C292.02 120.623 288.717 131.207 280.152 139.772Z" fill="#309B8A"/>
<path d="M101.932 188C114.045 188 121.89 191.84 164 200C121.5 208 114.045 212 101.932 212C89.8193 212 80 206.627 80 200C80 193.373 89.8193 188 101.932 188Z" fill="#FB9628"/>
<path d="M105.263 227.752C116.453 223.117 125.171 223.662 167.198 215.087C130.995 238.742 125.638 245.29 114.447 249.926C103.256 254.561 92.1283 253.355 89.5921 247.232C87.0559 241.109 94.0718 232.388 105.263 227.752Z" fill="#FB9D21"/>
<path d="M298.068 212C285.955 212 278.11 208.16 236 200C278.5 192 285.955 188 298.068 188C310.181 188 320 193.373 320 200C320 206.627 310.181 212 298.068 212Z" fill="#326E72"/>
<path d="M295.528 175.566C284.337 180.202 275.619 179.656 233.592 188.232C269.796 164.577 275.153 158.028 286.343 153.393C297.534 148.758 308.662 149.964 311.198 156.087C313.734 162.209 306.718 170.931 295.528 175.566Z" fill="#31847E"/>
</svg>
