<svg width="32" height="32" viewBox="0 0 32 32" fill="none" xmlns="http://www.w3.org/2000/svg">
<path d="M14.6318 0.00816469C14.5576 0.0159772 14.3193 0.043321 14.1045 0.0628522C11.0498 0.383165 8.04199 1.67613 5.58887 3.73082C5.13574 4.10582 4.10449 5.13707 3.72949 5.5902C1.69824 8.01598 0.510742 10.7386 0.0732422 13.9613C-0.0244141 14.6761 -0.0244141 17.0902 0.0732422 17.805C0.510742 21.0277 1.69824 23.7504 3.72949 26.1761C4.10449 26.6293 5.13574 27.6605 5.58887 28.0355C8.01465 30.0668 10.7373 31.2543 13.96 31.6918C14.6748 31.7894 17.0889 31.7894 17.8037 31.6918C21.0264 31.2543 23.749 30.0668 26.1748 28.0355C26.6279 27.6605 27.6592 26.6293 28.0342 26.1761C30.0654 23.7504 31.2529 21.0277 31.6904 17.805C31.7881 17.0902 31.7881 14.6761 31.6904 13.9613C31.2529 10.7386 30.0654 8.01598 28.0342 5.5902C27.6592 5.13707 26.6279 4.10582 26.1748 3.73082C23.7568 1.70738 21.0068 0.504259 17.8272 0.0784773C17.4834 0.0316023 16.9834 0.012071 16.0576 0.0042585C15.3506 -0.003554 14.7061 0.000352186 14.6318 0.00816469ZM14.8272 1.69566C14.8272 2.1527 14.8584 3.14488 14.9014 4.08629C14.9248 4.54723 14.9522 5.20738 14.9639 5.55113C15.0068 6.76988 15.1357 9.9691 15.1553 10.2543L15.1748 10.5394L14.999 10.5199C14.9014 10.5121 14.8115 10.4886 14.7959 10.4769C14.7842 10.4613 14.7568 10.1918 14.7412 9.87535C14.6709 8.48473 14.4404 3.0902 14.417 2.30113L14.3936 1.43395L14.5029 1.41832C14.5615 1.41051 14.6592 1.39879 14.7217 1.39488L14.8272 1.39098V1.69566ZM18.5654 1.60191C18.5693 1.60582 18.5811 2.78551 18.5928 4.22301C18.6084 5.66441 18.6279 6.95738 18.6397 7.09801C18.6514 7.24254 18.6475 7.36754 18.6279 7.37535C18.6123 7.38707 18.5147 7.38707 18.417 7.37535L18.2373 7.35973L18.21 6.22301C18.1943 5.5941 18.1748 4.89879 18.167 4.67223C18.1357 3.98082 18.1084 1.63316 18.1318 1.57457C18.1475 1.5316 18.1904 1.5277 18.3545 1.55504C18.4678 1.57848 18.5615 1.59801 18.5654 1.60191ZM9.53027 2.91051C9.55371 2.94566 9.73731 5.09801 9.96387 7.91441C10.0381 8.87145 10.1123 9.74645 10.124 9.85582C10.1436 10.055 10.1396 10.0629 10.0146 10.141C9.94434 10.1839 9.87402 10.2191 9.8584 10.2191C9.84668 10.2191 9.82324 10.1175 9.81152 9.99254C9.75684 9.48473 9.5459 7.0316 9.39746 5.25816C9.31152 4.2152 9.2334 3.2816 9.22168 3.18004C9.20215 3.00816 9.20606 2.99254 9.30762 2.93785C9.43262 2.87145 9.50293 2.85973 9.53027 2.91051ZM20.2842 3.69566C20.3936 3.73473 20.4053 3.75426 20.4287 3.97691C20.4678 4.36754 20.4561 6.23473 20.4131 6.23473C20.2998 6.23473 20.0654 6.10192 20.0459 6.0277C20.0342 5.98082 20.0225 5.42613 20.0225 4.79723C20.0225 3.5277 20.0068 3.60191 20.2842 3.69566ZM13.0693 3.87926C13.0693 3.98473 13.0967 4.56676 13.1279 5.18004C13.1592 5.79332 13.1943 6.57067 13.21 6.9066C13.2373 7.58629 13.2451 7.56285 12.9834 7.57848C12.8545 7.58238 12.8545 7.58238 12.8467 7.38707C12.8389 7.2777 12.8193 6.93785 12.7959 6.62535C12.7764 6.31285 12.7295 5.63707 12.6982 5.12145C12.667 4.60582 12.6279 4.0941 12.6162 3.98473C12.5928 3.78941 12.5967 3.7816 12.7022 3.74254C12.7647 3.7191 12.874 3.69957 12.9443 3.69957C13.0693 3.69566 13.0693 3.69566 13.0693 3.87926ZM23.9053 4.41441L24.0381 4.4691L24.0654 4.99254C24.0772 5.2777 24.085 5.89488 24.0772 6.35973L24.0654 7.21129L23.9014 7.12926L23.7373 7.05113L23.7256 5.75426C23.7178 5.03941 23.7217 4.43395 23.7295 4.4066C23.7451 4.34801 23.7451 4.34801 23.9053 4.41441ZM16.7725 4.92613C16.7959 4.94957 16.8506 6.8441 16.8545 7.80504L16.8584 8.38317L16.6748 8.35582C16.5693 8.3441 16.4834 8.33238 16.4795 8.32848C16.4678 8.32067 16.3506 5.42613 16.3506 5.14488V4.85582L16.5498 4.87926C16.6631 4.89488 16.7607 4.91441 16.7725 4.92613ZM25.7686 5.20348C25.8154 5.25817 25.8232 6.11363 25.835 10.8324C25.8467 16.2504 25.8467 16.391 25.7764 16.391C25.7334 16.391 25.6748 16.3675 25.6397 16.3402C25.5811 16.2972 25.5732 15.8246 25.5537 11.1957C25.5381 8.39098 25.5186 5.8441 25.5068 5.53551L25.4834 4.97301L25.5967 5.05504C25.6631 5.10192 25.7373 5.16832 25.7686 5.20348ZM22.2647 6.00426C22.2842 6.01988 22.3037 6.24254 22.3076 6.49645C22.3272 7.35973 22.3311 12.6527 22.3115 12.6683C22.3037 12.6761 22.2334 12.6566 22.1553 12.6254L22.0147 12.5668V5.92223L22.124 5.94567C22.1826 5.96129 22.2451 5.98473 22.2647 6.00426ZM11.4834 6.22301C11.4951 6.32848 11.5146 6.56676 11.5264 6.76207C11.5381 6.95348 11.5654 7.39098 11.5889 7.73082C11.6357 8.41832 11.6279 8.46129 11.4053 8.46129C11.2881 8.46129 11.2725 8.44957 11.2568 8.33238C11.2178 8.10192 11.0811 6.18004 11.1006 6.14879C11.1201 6.12145 11.3232 6.05113 11.417 6.04332C11.4404 6.03942 11.4717 6.12145 11.4834 6.22301ZM5.02246 7.2191C5.06543 7.63317 5.15137 8.50035 5.21387 9.14488C5.28027 9.78942 5.33496 10.3363 5.33496 10.3597C5.33496 10.4066 5.03418 10.555 5.00293 10.5238C4.9834 10.5043 4.59277 7.04723 4.59277 6.89098C4.59277 6.79723 4.89356 6.4027 4.93262 6.44566C4.94434 6.45348 4.9834 6.80113 5.02246 7.2191ZM20.3389 7.62926L20.4522 7.69566L20.4561 8.53942C20.46 9.00035 20.4678 9.51598 20.4678 9.68395C20.4756 10.0355 20.4326 10.0941 20.2217 10.0199L20.1006 9.97691V9.64098C20.1006 9.45348 20.0889 8.91051 20.0732 8.43004L20.0498 7.56285H20.1397C20.1865 7.56285 20.2764 7.5941 20.3389 7.62926ZM6.73731 9.14488C6.80762 9.89488 6.9209 11.1605 6.99512 11.9574L7.12793 13.4027L6.97559 13.555L6.82715 13.7074L6.79981 13.3988C6.78418 13.2269 6.70606 12.43 6.62402 11.6254C6.54199 10.8207 6.42481 9.6527 6.36621 9.0316L6.25684 7.9066L6.40918 7.76598C6.5459 7.63707 6.56152 7.63317 6.58887 7.70348C6.60449 7.74254 6.6709 8.39098 6.73731 9.14488ZM3.81152 9.61754C3.89746 10.3871 4.12402 12.4339 4.31934 14.1644C4.51465 15.8949 4.69824 17.5629 4.7334 17.8754C4.76465 18.1879 4.81934 18.6605 4.85059 18.93C4.90527 19.3871 4.90527 19.4183 4.84277 19.4652C4.74902 19.5355 4.70996 19.5277 4.70996 19.4457C4.70996 19.4105 4.67481 19.1136 4.63184 18.7933C4.56152 18.2582 4.44434 17.3519 4.18262 15.3168C4.12793 14.9066 4.02246 14.0902 3.94824 13.5004C3.87012 12.9105 3.75684 12.0316 3.69434 11.5472C3.63184 11.0629 3.52637 10.2347 3.45996 9.69957C3.38965 9.16832 3.34668 8.69567 3.3584 8.64488C3.38574 8.53942 3.61621 8.17223 3.63965 8.19567C3.64746 8.20738 3.72559 8.8441 3.81152 9.61754ZM2.61621 11.3011C2.6748 11.7699 2.78418 12.6254 2.8584 13.2074C2.93262 13.7855 3.02637 14.5082 3.06934 14.8089L3.14355 15.3558L3.06152 15.4261C3.01465 15.4652 2.96777 15.4808 2.95215 15.4652C2.93652 15.4496 2.90527 15.2933 2.88184 15.1214C2.8584 14.9496 2.71387 13.9457 2.55762 12.8949L2.28027 10.9808L2.37012 10.7152C2.41699 10.5707 2.46777 10.4535 2.47949 10.4535C2.49512 10.4535 2.55371 10.8363 2.61621 11.3011ZM24.0615 10.7894C24.1162 10.8441 24.124 11.0863 24.124 12.8793V14.9066H24.0147C23.7764 14.9066 23.7803 14.9652 23.7647 12.7464L23.7529 10.7269H23.8779C23.9443 10.7269 24.0303 10.7543 24.0615 10.7894ZM15.5107 11.4886C16.3936 11.6214 17.1631 11.8675 17.9248 12.2582C18.417 12.5121 18.6514 12.6879 19.1982 13.2113C20.0107 13.9886 20.5107 14.6683 20.9795 15.6293C21.6631 17.0277 21.9287 18.266 22.2647 21.5863C22.417 23.0746 22.6162 25.7738 22.6592 26.8793C22.6709 27.1996 22.6982 27.7269 22.7217 28.0511C22.7647 28.7386 22.8154 28.6449 22.21 28.9379C21.3701 29.3441 20.5615 29.6254 19.4951 29.8871C18.1904 30.2074 17.3467 30.3089 16.0576 30.3129L15.1201 30.3168L15.1279 29.8675C15.1279 29.6214 15.1514 29.0472 15.1748 28.598C15.292 26.4222 15.2686 23.6761 15.1162 22.1527C15.0303 21.2777 14.8623 20.2152 14.7686 19.9808C14.749 19.93 14.8389 19.8871 15.2256 19.7543C15.9326 19.5082 16.5459 19.1996 16.6397 19.0472C16.8076 18.7582 16.5068 18.3441 16.124 18.3441C16.0576 18.3441 15.8584 18.4144 15.6748 18.4964C14.7998 18.8988 13.0459 19.3714 12.0342 19.4769C11.335 19.5511 10.249 19.5082 9.49512 19.3714C9.08496 19.2972 8.35059 19.0199 7.73731 18.7035C7.03027 18.3363 6.59668 17.848 6.46777 17.2699C6.39746 16.9574 6.41699 16.3324 6.50684 15.9808C6.60449 15.5941 6.87793 15.0316 7.12793 14.7035C8.24121 13.2386 10.5381 11.9691 12.8936 11.5238C13.6436 11.3832 14.7061 11.3675 15.5107 11.4886ZM27.5615 11.6097C27.7022 11.6683 27.7178 11.6839 27.7178 11.8168C27.7256 12.8832 27.7022 15.3207 27.6826 15.4222C27.6787 15.4574 27.4756 15.4613 27.3897 15.43C27.335 15.4105 27.3272 15.1996 27.3272 13.4769C27.3272 12.2425 27.3428 11.5472 27.3662 11.5472C27.3857 11.5472 27.4756 11.5746 27.5615 11.6097ZM29.2686 13.7543L29.4092 13.8129L29.3818 17.0472C29.3506 21.1683 29.3467 21.2894 29.1982 21.6449C28.9561 22.2269 28.9678 22.3441 28.9912 19.7894C28.999 18.5121 29.0186 17.2191 29.0264 16.9183C29.0342 16.6175 29.042 15.7699 29.0459 15.0316C29.0459 14.141 29.0576 13.6957 29.085 13.6957C29.1084 13.6957 29.1904 13.723 29.2686 13.7543ZM5.77637 14.7269C5.79981 15.0433 5.79199 15.0746 5.67871 15.3246L5.55371 15.5902L5.50684 15.1996C5.43262 14.5746 5.43262 14.5472 5.58106 14.4535C5.64746 14.4066 5.71777 14.3754 5.72949 14.3832C5.74121 14.391 5.76465 14.5472 5.77637 14.7269ZM3.36231 17.0824C3.39746 17.4027 3.6709 19.5277 3.81152 20.5707C4.02246 22.1839 4.03809 22.4144 3.94434 22.3168C3.93262 22.305 3.84277 21.7621 3.74902 21.1097C3.13965 16.8988 3.14355 16.9261 3.19434 16.8949C3.2998 16.8246 3.33496 16.8636 3.36231 17.0824ZM6.17481 18.8714C6.19824 18.9691 6.31152 20.0277 6.31152 20.1566C6.31152 20.266 6.1709 20.3675 6.1084 20.305C6.08887 20.2855 6.03809 19.9535 5.99902 19.5707C5.95606 19.1839 5.91309 18.7816 5.90137 18.6761L5.87793 18.4808L6.01465 18.6371C6.09277 18.723 6.16309 18.8285 6.17481 18.8714ZM9.32715 20.3441C9.37012 20.3832 9.39746 20.5394 9.43262 20.9613C9.49121 21.723 9.49902 21.6644 9.33887 21.6644C9.17481 21.6644 9.17871 21.6761 9.12402 20.9886C9.06934 20.2894 9.06934 20.2972 9.1748 20.2972C9.22559 20.2972 9.29199 20.3207 9.32715 20.3441ZM12.4209 20.4027C12.4287 20.4418 12.4482 20.6761 12.4639 20.9222C12.4756 21.1683 12.5107 21.723 12.542 22.1527C12.6514 23.7308 12.6553 23.93 12.5889 23.93C12.5147 23.93 12.5068 23.8714 12.4209 22.7582C12.3896 22.2972 12.3311 21.5707 12.292 21.1449C12.2568 20.7191 12.2334 20.3636 12.2451 20.3558C12.2881 20.3089 12.4014 20.3441 12.4209 20.4027ZM5.07715 21.1527C5.10059 21.1879 5.24902 22.4379 5.43262 24.1449C5.48731 24.6605 5.54199 25.1566 5.55371 25.2504L5.57324 25.4183L5.47559 25.3558C5.40137 25.305 5.37402 25.2543 5.37402 25.1644C5.37402 24.9183 5.20605 23.2972 5.07715 22.305C5.00293 21.7425 4.94434 21.2464 4.94434 21.1996C4.94434 21.1175 5.03809 21.0863 5.07715 21.1527ZM27.6201 22.7855L27.5928 24.4183L27.4951 24.5629C27.2725 24.891 27.2842 24.9535 27.2959 23.1254L27.3037 21.4496L27.4482 21.3011C27.5264 21.223 27.6045 21.1566 27.6201 21.1566C27.6318 21.1566 27.6318 21.891 27.6201 22.7855ZM24.0068 25.3754C24.0264 27.6449 24.0225 27.8207 23.96 27.891C23.9209 27.9339 23.8857 27.9613 23.874 27.9496C23.8467 27.9183 23.8076 22.9691 23.8389 22.9418C23.8545 22.9261 23.8936 22.9183 23.9287 22.9222C23.9795 22.9339 23.9912 23.2113 24.0068 25.3754ZM11.249 23.8207C11.2764 24.0629 11.374 25.223 11.4131 25.7699C11.4365 26.1371 11.4365 26.1488 11.3506 26.1761C11.3037 26.1918 11.249 26.1879 11.2334 26.1683C11.2061 26.141 11.1201 25.2738 11.0146 23.9379L10.9873 23.6175H11.1084C11.2217 23.6175 11.2295 23.6254 11.249 23.8207ZM8.17871 25.1879C8.20605 25.2152 8.22559 25.3129 8.22559 25.4105C8.22559 25.5121 8.27246 26.0394 8.32324 26.5863C8.47168 28.0824 8.4834 28.2855 8.41699 28.2464C8.31543 28.1879 8.22559 28.098 8.24512 28.0746C8.25293 28.0589 8.23731 27.8636 8.20606 27.641C8.17871 27.4144 8.14356 27.0472 8.12793 26.8207C8.11231 26.5941 8.07715 26.18 8.0459 25.9027C7.97168 25.2191 7.97559 25.141 8.06152 25.141C8.10059 25.141 8.15137 25.1605 8.17871 25.1879ZM10.0264 27.8168C10.0381 27.9027 10.0615 28.223 10.0771 28.5277C10.1045 29.1136 10.0928 29.1566 9.93262 29.0355C9.88574 29.0004 9.85449 28.8519 9.80762 28.4066C9.72559 27.6019 9.72168 27.6332 9.87402 27.6488C9.98731 27.6605 10.0029 27.6761 10.0264 27.8168Z" fill="black"/>
<path d="M8.63184 13.3597C8.22559 13.5355 8.19434 14.0863 8.57715 14.2816C8.85449 14.4222 9.13574 14.3558 9.28027 14.1136C9.55371 13.6683 9.1084 13.1527 8.63184 13.3597ZM11.2803 13.7347C10.9053 13.9652 10.9053 14.5199 11.2803 14.7504C11.6514 14.973 12.1318 14.68 12.1318 14.2347C12.1318 13.805 11.6396 13.516 11.2803 13.7347Z" fill="black"/>
</svg>
