<svg xmlns="http://www.w3.org/2000/svg" xmlns:xlink="http://www.w3.org/1999/xlink" xml:space="preserve" width="3.16677in" height="0.540315in" version="1.1" style="shape-rendering:geometricPrecision; text-rendering:geometricPrecision; image-rendering:optimizeQuality; fill-rule:evenodd; clip-rule:evenodd" viewBox="0 0 100.8 17.2"><g id="Capa_x0020_1"><path fill="#028CC2" class="fil0" d="M71.57 12.29c-3.58,0.61 -5.83,-3.52 -3.3,-6.35 -0.05,-0.24 -0.53,-1.15 -0.69,-1.38 -0.69,0.5 -1.45,1.54 -1.77,2.7 -0.65,2.39 0.54,4.93 2.64,5.99 1.31,0.66 2.26,0.66 3.82,0.38l-0.7 -1.34zm1.82 -1.04c0.06,0.24 0.58,1.25 0.71,1.39 0.25,-0.12 0.9,-0.88 1.09,-1.18 1.07,-1.66 1.1,-3.59 0.24,-5.3 -0.46,-0.91 -1.33,-1.76 -2.27,-2.21 -0.56,-0.27 -1.01,-0.42 -1.69,-0.52 -0.85,-0.11 -1.3,0.02 -2.08,0.15l0.69 1.34c2.7,-0.56 4.8,1.85 4.33,4.4 -0.12,0.66 -0.63,1.71 -1.03,1.92zm16.03 2.28l1.5 0 0 -3.74 -1.5 -1.54 0 5.27zm4.02 -8.42l2.89 0.01 0 0.02 0 8.39 1.55 -0.01c0.01,-1.6 0,-6.59 0,-7.05l-0 -0 0 -1.36 2.91 -0.01 0 -1.43 -7.39 -0 0.03 1.44zm-48.39 8.42l7.08 0 0 -1.26 -0.03 -0.18 -7.05 0.01 -0 1.42zm0.01 -8.42l7.06 0 0 -1.44 -7.08 0.02 0.01 1.42zm19.44 -1.44c-1.75,0 -1.8,0 -1.8,0 -0.28,0.53 -3.2,6.13 -3.47,6.65l-0.81 -1.58c-0.59,-1.14 -1.44,-2.67 -1.98,-3.8 -0.17,-0.35 -0.52,-0.92 -0.64,-1.27l-1.76 0.01 5.23 10.09 0.34 -0.63 0.34 -0.63c0.1,-0.2 0.18,-0.27 0.18,-0.38l4.37 -8.46zm-19.45 5.63l5.52 0 0 -1.26 -0.03 -0.18 -5.49 0.01 -0 1.42zm-10.46 -4.31c0.89,1.13 1.84,2.98 2.63,4.27 0.14,0.22 2.52,4.23 2.68,4.27l1.69 -0.02 -0 -9.84 -1.56 -0c-0.01,1.18 0.05,4.91 0.09,7.43 -0.52,-0.84 -1.02,-1.7 -1.54,-2.54 -0.52,-0.83 -1,-1.63 -1.51,-2.47 -0.17,-0.28 -1.4,-2.4 -1.55,-2.43l-2.49 0.02 0 9.83 1.56 0 0 -8.53zm44.03 8.53l0.02 0c0.3,0 0.75,0.02 1.12,0.01 1.74,0.01 4.67,-0.01 5.29,-0.33 1.78,-0.92 2.13,-3.25 0.78,-4.66 -0.24,-0.25 -0.65,-0.44 -0.8,-0.6 0.21,-0.33 0.38,-0.49 0.51,-0.99 0.11,-0.44 0.09,-0.89 -0.03,-1.31 -0.21,-0.76 -0.73,-1.32 -1.32,-1.65 -0.76,-0.42 -1.69,-0.33 -2.64,-0.33l-2.94 0 -0.04 0 0.04 0.07 -0 9.56c-0.03,0.08 -0.03,0.16 0,0.23zm-66.74 -9.11c0.74,1.15 1.36,2.37 2.13,3.47 2.05,0 4.13,0 6.18,0 2.35,0 3.71,0.04 4.51,1.61 0.98,1.81 -0.05,3.48 -1.24,4.14 -1.1,0.62 -4.2,0.34 -5.73,0.38l2.06 3.15 1.4 0.02c3.82,0 6.64,-1.3 7.51,-4.85 0.26,-1.07 0.21,-2.13 -0.07,-3.16 -0.5,-1.83 -1.77,-3.19 -3.18,-3.97 -1.83,-1.02 -4.08,-0.79 -6.37,-0.79 -2.4,0 -4.83,0 -7.22,0zm5.11 8.35c-0.74,-1.15 -1.35,-2.37 -2.13,-3.47 -2.05,-0 -4.1,-0 -6.15,-0 -2.35,0 -3.71,-0.04 -4.51,-1.61 -0.98,-1.81 0.05,-3.48 1.24,-4.14 1.1,-0.62 4.2,-0.34 5.73,-0.38l-2.06 -3.15 -1.4 -0.02c-3.82,0 -6.64,1.3 -7.51,4.85 -0.26,1.07 -0.21,2.13 0.07,3.16 0.5,1.83 1.77,3.19 3.18,3.97 1.83,1.02 4.08,0.79 6.37,0.79 2.4,0 4.79,0 7.19,0zm-4.06 1.25l2.48 0 2.06 3.16 -4.54 0 0 -3.16zm3.24 -10.84l-2.48 0 -2.06 -3.16 4.54 0 0 3.16zm4.64 0l-2.48 0 -0.03 -3.16 2.51 0 0 3.16zm-9.83 14.01l-2.48 0 -0.03 -3.16 2.51 0 0 3.16zm69.2 -5.08l0 -3.05c1.3,-0.01 3.6,-0.04 4.01,0.14 1.29,0.56 1.15,2.48 -0.19,2.85 -0.41,0.11 -2.51,0.08 -3.81,0.07zm0 -4.45l0 -2.55 1.83 -0c0.97,0 1.5,-0.02 1.87,0.67 0.41,0.75 -0.02,1.44 -0.51,1.72 -0.34,0.19 -2.07,0.18 -3.19,0.16zm10.75 -0.82l0 -2.96 -0 -0.2 -1.49 0.02 0 1.6 1.5 1.54z"/></g></svg>