<svg width="40" height="40" viewBox="0 0 40 40" fill="none" xmlns="http://www.w3.org/2000/svg">
<path d="M20 8C14.6665 8 11.3333 10.666 9.99975 15.9975C12 13.3315 14.3334 12.3321 16.9999 12.9984C18.5214 13.3785 19.6089 14.4824 20.8128 15.7039C22.7735 17.6936 25.0429 19.9965 30.0003 19.9965C35.3333 19.9965 38.667 17.3305 40 11.9985C38.0003 14.6645 35.6669 15.6644 32.9999 14.9981C31.4788 14.618 30.3914 13.5141 29.1874 12.2926C27.2267 10.3029 24.9569 8 20 8V8ZM9.99975 19.9965C4.66675 19.9965 1.333 22.6625 0 27.9945C1.99975 25.3285 4.33313 24.3286 7.00013 24.9953C8.5212 25.376 9.6086 26.4794 10.8126 27.7004C12.7733 29.6901 15.0431 31.9935 20 31.9935C25.3335 31.9935 28.6668 29.3275 30.0003 23.9955C28 26.6615 25.6666 27.6613 23.0001 26.9946C21.4786 26.615 20.3911 25.5105 19.1872 24.2896C17.2265 22.2998 14.9571 19.9965 9.99975 19.9965V19.9965Z" fill="#06B6D4"/>
</svg>
