<svg width="40" height="40" viewBox="0 0 40 40" fill="none" xmlns="http://www.w3.org/2000/svg">
<path d="M0 0H40V40H0V0Z" fill="#017ACB"/>
<path d="M21.0063 18.2437H22.9251V21.5562H17.7376V36.2937L17.6001 36.3312C17.4126 36.3812 14.9438 36.3812 14.4126 36.325L13.9876 36.2875V21.5562H8.80005V18.2437L10.4438 18.225C11.3438 18.2125 13.6563 18.2125 15.5813 18.225C17.5063 18.2375 19.9438 18.2437 21.0063 18.2437ZM35.6501 34.7312C34.8876 35.5375 34.0688 35.9875 32.7063 36.3562C32.1126 36.5187 32.0126 36.525 30.6751 36.5187C29.3376 36.5125 29.2313 36.5125 28.5813 36.3437C26.9001 35.9125 25.5438 35.0687 24.6188 33.875C24.3563 33.5375 23.9251 32.8375 23.9251 32.75C23.9251 32.725 23.9876 32.6687 24.0688 32.6312C24.1501 32.5937 24.3188 32.4875 24.4563 32.4062C24.5938 32.325 24.8438 32.175 25.0126 32.0875C25.1813 32 25.6688 31.7125 26.0938 31.4562C26.5188 31.2 26.9063 30.9937 26.9501 30.9937C26.9938 30.9937 27.0751 31.0812 27.1376 31.1875C27.5126 31.8187 28.3876 32.625 29.0063 32.9C29.3876 33.0625 30.2313 33.2437 30.6376 33.2437C31.0126 33.2437 31.7001 33.0812 32.0688 32.9125C32.4626 32.7312 32.6626 32.55 32.9001 32.1875C33.0626 31.9312 33.0813 31.8625 33.0751 31.375C33.0751 30.925 33.0501 30.8 32.9251 30.5937C32.5751 30.0187 32.1001 29.7187 30.1751 28.8687C28.1876 27.9875 27.2938 27.4625 26.5688 26.7562C26.0313 26.2312 25.9251 26.0875 25.5876 25.4312C25.1501 24.5875 25.0938 24.3125 25.0876 23.0562C25.0813 22.175 25.1001 21.8875 25.1938 21.5875C25.3251 21.1375 25.7501 20.2687 25.9438 20.05C26.3438 19.5812 26.4876 19.4375 26.7688 19.2062C27.6188 18.5062 28.9438 18.0437 30.2126 18C30.3563 18 30.8313 18.025 31.2751 18.0562C32.5501 18.1625 33.4188 18.475 34.2563 19.1437C34.8876 19.6437 35.8438 20.8188 35.7501 20.975C35.6876 21.0687 33.1938 22.7312 33.0313 22.7812C32.9313 22.8125 32.8626 22.775 32.7251 22.6125C31.8751 21.5937 31.5313 21.375 30.7063 21.325C30.1188 21.2875 29.8063 21.3562 29.4126 21.6187C29.0001 21.8937 28.8001 22.3125 28.8001 22.8937C28.8063 23.7437 29.1313 24.1437 30.3313 24.7375C31.1063 25.1187 31.7688 25.4312 31.8188 25.4312C31.8938 25.4312 33.5001 26.2312 33.9188 26.4812C35.8688 27.625 36.6626 28.8 36.8688 30.825C37.0188 32.35 36.5876 33.7437 35.6501 34.7312Z" fill="white"/>
</svg>
