<svg width="40" height="40" viewBox="0 0 40 40" fill="none" xmlns="http://www.w3.org/2000/svg">
<g clip-path="url(#clip0_4_7292)">
<path d="M0 20C0 22.4464 0.440078 24.7899 1.24398 26.9565L20 28.6956L38.756 26.9565C39.5599 24.7899 40 22.4464 40 20C40 17.5536 39.5599 15.2102 38.756 13.0435L20 11.3044L1.24398 13.0435C0.440078 15.2102 0 17.5536 0 20H0Z" fill="#FFDA44"/>
<path d="M38.756 13.0435C35.9302 5.42758 28.5993 0 20 0C11.4007 0 4.06988 5.42758 1.24402 13.0435H38.756Z" fill="#D80027"/>
<path d="M1.24402 26.9565C4.06988 34.5724 11.4007 40 20 40C28.5993 40 35.9302 34.5724 38.756 26.9565H1.24402Z" fill="#D80027"/>
</g>
<defs>
<clipPath id="clip0_4_7292">
<rect width="40" height="40" fill="white"/>
</clipPath>
</defs>
</svg>
