<svg width="40" height="40" viewBox="0 0 40 40" fill="none" xmlns="http://www.w3.org/2000/svg">
<g clip-path="url(#clip0_4_7323)">
<path d="M20 39.999C31.0457 39.999 40 31.0447 40 19.999C40 8.95333 31.0457 -0.000976562 20 -0.000976562C8.9543 -0.000976562 0 8.95333 0 19.999C0 31.0447 8.9543 39.999 20 39.999Z" fill="#F0F0F0"/>
<path d="M19.1304 19.9987H39.9999C39.9999 18.1935 39.7593 16.4448 39.3109 14.7812H19.1304V19.9987Z" fill="#D80027"/>
<path d="M19.1304 9.5641H37.0644C35.8401 7.56629 34.2747 5.80043 32.4496 4.34668H19.1304V9.5641Z" fill="#D80027"/>
<path d="M20 39.9987C24.7069 39.9987 29.0333 38.3718 32.4497 35.6509H7.55029C10.9667 38.3718 15.293 39.9987 20 39.9987Z" fill="#D80027"/>
<path d="M2.93545 30.4337H37.0645C38.0474 28.8299 38.8097 27.0768 39.311 25.2163H0.688965C1.19029 27.0768 1.95256 28.8299 2.93545 30.4337V30.4337Z" fill="#D80027"/>
<path d="M9.26437 3.1223H11.087L9.39164 4.35395L10.0392 6.34684L8.34398 5.1152L6.64875 6.34684L7.20812 4.6252C5.71547 5.86855 4.40719 7.32527 3.32906 8.9484H3.91305L2.83391 9.73238C2.66578 10.0129 2.50453 10.2978 2.35 10.5869L2.86531 12.1729L1.90391 11.4744C1.66492 11.9807 1.44633 12.4985 1.24984 13.027L1.81758 14.7745H3.91305L2.21773 16.0061L2.86531 17.999L1.17008 16.7674L0.154609 17.5052C0.0529687 18.3222 0 19.1544 0 19.999H20C20 8.9534 20 7.65121 20 -0.000976562C16.0491 -0.000976562 12.366 1.14512 9.26437 3.1223V3.1223ZM10.0392 17.999L8.34398 16.7674L6.64875 17.999L7.29633 16.0061L5.60102 14.7745H7.69648L8.34398 12.7816L8.99148 14.7745H11.087L9.39164 16.0061L10.0392 17.999ZM9.39164 10.18L10.0392 12.1729L8.34398 10.9413L6.64875 12.1729L7.29633 10.18L5.60102 8.9484H7.69648L8.34398 6.95551L8.99148 8.9484H11.087L9.39164 10.18ZM17.2131 17.999L15.5179 16.7674L13.8227 17.999L14.4702 16.0061L12.7749 14.7745H14.8704L15.5179 12.7816L16.1654 14.7745H18.2609L16.5655 16.0061L17.2131 17.999ZM16.5655 10.18L17.2131 12.1729L15.5179 10.9413L13.8227 12.1729L14.4702 10.18L12.7749 8.9484H14.8704L15.5179 6.95551L16.1654 8.9484H18.2609L16.5655 10.18ZM16.5655 4.35395L17.2131 6.34684L15.5179 5.1152L13.8227 6.34684L14.4702 4.35395L12.7749 3.1223H14.8704L15.5179 1.12941L16.1654 3.1223H18.2609L16.5655 4.35395Z" fill="#0052B4"/>
</g>
<defs>
<clipPath id="clip0_4_7323">
<rect width="40" height="40" fill="white" transform="translate(0 -0.000976562)"/>
</clipPath>
</defs>
</svg>
